<?xml version="1.0" encoding="utf-8"?>
<!-- Generator: Adobe Illustrator 27.5.0, SVG Export Plug-In . SVG Version: 6.00 Build 0)  -->
<svg version="1.1" id="レイヤー_1" xmlns="http://www.w3.org/2000/svg" xmlns:xlink="http://www.w3.org/1999/xlink" x="0px"
	 y="0px" viewBox="0 0 30 30" style="enable-background:new 0 0 30 30;" xml:space="preserve">
<style type="text/css">
	.st0{fill:#FFFFFF;}
</style>
<circle id="楕円形_1" class="st0" cx="15" cy="15" r="15"/>
<g id="グループ_36" transform="translate(3.436 -59.607)">
	<path d="M11.8,78c-0.1,0-0.3,0-0.4-0.1c-0.2-0.2-0.2-0.5,0-0.7l2.5-2.5l-2.5-2.5c-0.2-0.2-0.2-0.5,0-0.7c0.2-0.2,0.5-0.2,0.7,0
		l2.9,2.9c0.2,0.2,0.2,0.5,0,0.7L12.1,78C12,78,11.9,78,11.8,78z"/>
	<path d="M14.7,75.1H8.5c-0.3,0-0.5-0.2-0.5-0.5c0-0.3,0.2-0.5,0.5-0.5h6.2c0.3,0,0.5,0.2,0.5,0.5C15.2,74.9,14.9,75.1,14.7,75.1z"
		/>
</g>
</svg>
